STARTFONT 2.1
FONT -Adobe-Times-Bold-I-Normal--14-140-75-75-P-77-iso10646-0400
SIZE 14 75 75
FONTBOUNDINGBOX 19 17 -3 -3
COMMENT $XConsortium: timBI14.bdf,v 1.14 95/01/26 18:06:22 gildea Exp $
COMMENT 
COMMENT +
COMMENT  Copyright 1984-1989, 1994 Adobe Systems Incorporated.
COMMENT  Copyright 1988, 1994 Digital Equipment Corporation.
COMMENT
COMMENT  Adobe is a trademark of Adobe Systems Incorporated which may be
COMMENT  registered in certain jurisdictions.
COMMENT  Permission to use these trademarks is hereby granted only in
COMMENT  association with the images described in this file.
COMMENT
COMMENT  Permission to use, copy, modify, distribute and sell this software
COMMENT  and its documentation for any purpose and without fee is hereby
COMMENT  granted, provided that the above copyright notices appear in all
COMMENT  copies and that both those copyright notices and this permission
COMMENT  notice appear in supporting documentation, and that the names of
COMMENT  Adobe Systems and Digital Equipment Corporation not be used in
COMMENT  advertising or publicity pertaining to distribution of the software
COMMENT  without specific, written prior permission.  Adobe Systems and
COMMENT  Digital Equipment Corporation make no representations about the
COMMENT  suitability of this software for any purpose.  It is provided "as
COMMENT  is" without express or implied warranty.
COMMENT -
STARTPROPERTIES 32
FOUNDRY "Adobe"
FAMILY_NAME "Times"
WEIGHT_NAME "Bold"
SLANT "I"
SETWIDTH_NAME "Normal"
ADD_STYLE_NAME ""
PIXEL_SIZE 14
POINT_SIZE 140
RESOLUTION_X 75
RESOLUTION_Y 75
SPACING "P"
AVERAGE_WIDTH 77
CHARSET_REGISTRY "iso10646"
CHARSET_ENCODING "0400"
CAP_HEIGHT 10
X_HEIGHT 7
FONT_ASCENT 12
FONT_DESCENT 3
FACE_NAME "Times Bold Italic"
COPYRIGHT "Copyright (c) 1984, 1987 Adobe Systems Incorporated. All Rights Reserved. Copyright (c) 1988, 1991 Digital Equipment Corporation. All Rights Reserved."
NOTICE "Times is a trademark of Linotype-Hell AG and/or its subsidiaries."

STARTCHAR space
ENCODING 32
SWIDTH 250 0
DWIDTH 3 0
BBX 0 0 0 0
BITMAP
ENDCHAR
STARTCHAR exclam
ENCODING 33
SWIDTH 389 0
DWIDTH 7 0
BBX 5 10 1 0
BITMAP
18
18
38
30
30
20
60
00
C0
C0
ENDCHAR
STARTCHAR quotedbl
ENCODING 34
SWIDTH 555 0
DWIDTH 7 0
BBX 6 4 2 6
BITMAP
6C
6C
D8
90
ENDCHAR
STARTCHAR numbersign
ENCODING 35
SWIDTH 500 0
DWIDTH 8 0
BBX 8 10 0 0
BITMAP
12
12
12
7F
24
24
FE
48
48
48
ENDCHAR
STARTCHAR dollar
ENCODING 36
SWIDTH 500 0
DWIDTH 7 0
BBX 7 12 0 -1
BITMAP
04
1C
2A
6A
78
38
1C
1C
AC
A8
70
40
ENDCHAR
STARTCHAR percent
ENCODING 37
SWIDTH 833 0
DWIDTH 14 0
BBX 12 10 1 0
BITMAP
38C0
6F80
CD00
CB00
DEE0
77B0
0D30
0B30
1360
31C0
ENDCHAR
STARTCHAR ampersand
ENCODING 38
SWIDTH 778 0
DWIDTH 10 0
BBX 10 10 0 0
BITMAP
0E00
1900
1900
1A00
1DC0
6C80
CF00
C640
EF80
7B80
ENDCHAR
STARTCHAR quotesingle
ENCODING 39
SWIDTH 278 0
DWIDTH 4 0
BBX 3 4 2 6
BITMAP
60
60
C0
80
ENDCHAR
STARTCHAR parenleft
ENCODING 40
SWIDTH 333 0
DWIDTH 6 0
BBX 5 13 1 -3
BITMAP
18
30
30
60
60
60
C0
C0
C0
C0
C0
C0
60
ENDCHAR
STARTCHAR parenright
ENCODING 41
SWIDTH 333 0
DWIDTH 6 0
BBX 5 13 0 -3
BITMAP
30
18
18
18
18
18
18
30
30
30
60
60
C0
ENDCHAR
STARTCHAR asterisk
ENCODING 42
SWIDTH 500 0
DWIDTH 7 0
BBX 5 5 1 5
BITMAP
20
F8
70
F8
20
ENDCHAR
STARTCHAR plus
ENCODING 43
SWIDTH 570 0
DWIDTH 9 0
BBX 8 7 0 0
BITMAP
18
18
18
FF
18
18
18
ENDCHAR
STARTCHAR comma
ENCODING 44
SWIDTH 250 0
DWIDTH 4 0
BBX 3 4 0 -2
BITMAP
60
60
20
C0
ENDCHAR
STARTCHAR minus
ENCODING 45
SWIDTH 606 0
DWIDTH 9 0
BBX 7 1 1 3
BITMAP
FE
ENDCHAR
STARTCHAR period
ENCODING 46
SWIDTH 250 0
DWIDTH 3 0
BBX 2 2 0 0
BITMAP
C0
C0
ENDCHAR
STARTCHAR slash
ENCODING 47
SWIDTH 278 0
DWIDTH 6 0
BBX 4 10 1 0
BITMAP
10
10
30
20
20
40
40
C0
80
80
ENDCHAR
STARTCHAR zero
ENCODING 48
SWIDTH 500 0
DWIDTH 7 0
BBX 7 10 0 0
BITMAP
1C
36
66
66
46
C4
CC
CC
D8
70
ENDCHAR
STARTCHAR one
ENCODING 49
SWIDTH 500 0
DWIDTH 7 0
BBX 5 10 1 0
BITMAP
18
78
30
30
30
30
60
60
60
F0
ENDCHAR
STARTCHAR two
ENCODING 50
SWIDTH 500 0
DWIDTH 7 0
BBX 7 10 0 0
BITMAP
1C
3E
26
06
0C
18
30
64
FC
F8
ENDCHAR
STARTCHAR three
ENCODING 51
SWIDTH 500 0
DWIDTH 7 0
BBX 7 10 0 0
BITMAP
1C
2E
06
0C
38
1C
0C
CC
DC
78
ENDCHAR
STARTCHAR four
ENCODING 52
SWIDTH 500 0
DWIDTH 7 0
BBX 7 10 0 0
BITMAP
06
0E
16
2C
4C
FE
FE
18
30
30
ENDCHAR
STARTCHAR five
ENCODING 53
SWIDTH 500 0
DWIDTH 7 0
BBX 7 10 0 0
BITMAP
3E
3C
60
78
1C
0C
0C
0C
D8
F0
ENDCHAR
STARTCHAR six
ENCODING 54
SWIDTH 500 0
DWIDTH 7 0
BBX 7 10 0 0
BITMAP
0E
38
60
60
F8
CC
CC
CC
F8
70
ENDCHAR
STARTCHAR seven
ENCODING 55
SWIDTH 500 0
DWIDTH 7 0
BBX 7 10 1 0
BITMAP
7E
FE
8C
08
18
30
20
60
C0
C0
ENDCHAR
STARTCHAR eight
ENCODING 56
SWIDTH 500 0
DWIDTH 7 0
BBX 7 10 0 0
BITMAP
3C
76
66
34
38
68
CC
CC
D8
70
ENDCHAR
STARTCHAR nine
ENCODING 57
SWIDTH 500 0
DWIDTH 7 0
BBX 7 10 0 0
BITMAP
1C
36
66
66
66
3E
0C
0C
38
E0
ENDCHAR
STARTCHAR colon
ENCODING 58
SWIDTH 333 0
DWIDTH 5 0
BBX 3 7 1 0
BITMAP
60
60
00
00
00
C0
C0
ENDCHAR
STARTCHAR semicolon
ENCODING 59
SWIDTH 333 0
DWIDTH 4 0
BBX 4 9 0 -2
BITMAP
30
30
00
00
00
60
60
20
C0
ENDCHAR
STARTCHAR less
ENCODING 60
SWIDTH 570 0
DWIDTH 8 0
BBX 6 6 1 0
BITMAP
0C
30
C0
C0
30
0C
ENDCHAR
STARTCHAR equal
ENCODING 61
SWIDTH 570 0
DWIDTH 10 0
BBX 7 3 1 2
BITMAP
FE
00
FE
ENDCHAR
STARTCHAR greater
ENCODING 62
SWIDTH 570 0
DWIDTH 8 0
BBX 6 6 1 0
BITMAP
C0
30
0C
0C
30
C0
ENDCHAR
STARTCHAR question
ENCODING 63
SWIDTH 500 0
DWIDTH 8 0
BBX 6 10 2 0
BITMAP
78
9C
CC
18
30
60
40
00
C0
C0
ENDCHAR
STARTCHAR at
ENCODING 64
SWIDTH 832 0
DWIDTH 15 0
BBX 12 12 1 -2
BITMAP
07C0
1C20
3010
6750
4C90
D910
D910
DB20
CEC0
6000
3040
0F80
ENDCHAR
STARTCHAR A
ENCODING 65
SWIDTH 667 0
DWIDTH 9 0
BBX 10 10 -1 0
BITMAP
0180
0380
0380
0580
0D80
0980
1F80
2180
6180
F3C0
ENDCHAR
STARTCHAR B
ENCODING 66
SWIDTH 667 0
DWIDTH 9 0
BBX 10 10 0 0
BITMAP
3F80
18C0
18C0
3180
3F00
3380
7180
6180
6300
FE00
ENDCHAR
STARTCHAR C
ENCODING 67
SWIDTH 667 0
DWIDTH 9 0
BBX 9 10 1 0
BITMAP
1F80
3980
6100
6000
C000
C000
C000
C100
E600
7C00
ENDCHAR
STARTCHAR D
ENCODING 68
SWIDTH 722 0
DWIDTH 10 0
BBX 10 10 0 0
BITMAP
3F00
1980
18C0
30C0
30C0
30C0
6180
6180
6700
FC00
ENDCHAR
STARTCHAR E
ENCODING 69
SWIDTH 667 0
DWIDTH 10 0
BBX 10 10 0 0
BITMAP
3FC0
18C0
1800
3100
3F00
3200
7000
6000
6180
FF00
ENDCHAR
STARTCHAR F
ENCODING 70
SWIDTH 667 0
DWIDTH 9 0
BBX 10 10 0 0
BITMAP
3FC0
18C0
1800
3100
3F00
3200
7000
6000
6000
F000
ENDCHAR
STARTCHAR G
ENCODING 71
SWIDTH 722 0
DWIDTH 10 0
BBX 9 10 1 0
BITMAP
1F80
3980
6100
6000
C000
C780
C300
C300
E600
7E00
ENDCHAR
STARTCHAR H
ENCODING 72
SWIDTH 778 0
DWIDTH 11 0
BBX 12 10 0 0
BITMAP
3CF0
1860
1860
30C0
3FC0
30C0
6180
6180
6180
F3C0
ENDCHAR
STARTCHAR I
ENCODING 73
SWIDTH 389 0
DWIDTH 5 0
BBX 8 10 -1 0
BITMAP
1F
0C
0C
18
18
18
30
30
30
F8
ENDCHAR
STARTCHAR J
ENCODING 74
SWIDTH 500 0
DWIDTH 7 0
BBX 8 11 0 -1
BITMAP
0F
06
06
0C
0C
0C
18
18
D8
F0
60
ENDCHAR
STARTCHAR K
ENCODING 75
SWIDTH 667 0
DWIDTH 11 0
BBX 11 10 0 0
BITMAP
3DE0
18C0
1900
3200
3400
3C00
3600
6300
6180
F3C0
ENDCHAR
STARTCHAR L
ENCODING 76
SWIDTH 611 0
DWIDTH 9 0
BBX 8 10 0 0
BITMAP
3C
18
18
30
30
30
60
61
63
FE
ENDCHAR
STARTCHAR M
ENCODING 77
SWIDTH 889 0
DWIDTH 13 0
BBX 15 10 -1 0
BITMAP
1C0E
0C1C
1E2C
1658
1658
3698
2730
2730
6630
E678
ENDCHAR
STARTCHAR N
ENCODING 78
SWIDTH 722 0
DWIDTH 11 0
BBX 13 10 0 0
BITMAP
3C78
1C30
1C20
1660
3640
2640
23C0
6380
4180
E180
ENDCHAR
STARTCHAR O
ENCODING 79
SWIDTH 722 0
DWIDTH 10 0
BBX 9 10 1 0
BITMAP
1F00
3380
6180
6180
C180
C180
C300
C300
E600
7C00
ENDCHAR
STARTCHAR P
ENCODING 80
SWIDTH 611 0
DWIDTH 9 0
BBX 10 10 0 0
BITMAP
3F80
18C0
18C0
31C0
3F80
3000
3000
6000
6000
F000
ENDCHAR
STARTCHAR Q
ENCODING 81
SWIDTH 722 0
DWIDTH 10 0
BBX 10 13 0 -3
BITMAP
0F80
19C0
30C0
30C0
60C0
60C0
6180
6180
7300
3E00
3000
7C80
8F00
ENDCHAR
STARTCHAR R
ENCODING 82
SWIDTH 667 0
DWIDTH 10 0
BBX 10 10 0 0
BITMAP
3F80
18C0
18C0
31C0
3F80
3600
3300
6300
6180
F1C0
ENDCHAR
STARTCHAR S
ENCODING 83
SWIDTH 556 0
DWIDTH 8 0
BBX 9 10 0 0
BITMAP
1F80
3180
3100
3800
1C00
0E00
0600
8600
CE00
FC00
ENDCHAR
STARTCHAR T
ENCODING 84
SWIDTH 611 0
DWIDTH 10 0
BBX 10 10 2 0
BITMAP
FFC0
CCC0
8C80
1800
1800
1800
3000
3000
7000
F800
ENDCHAR
STARTCHAR U
ENCODING 85
SWIDTH 722 0
DWIDTH 10 0
BBX 11 10 1 0
BITMAP
7DE0
30C0
3080
7180
6100
6100
E300
C200
C600
7C00
ENDCHAR
STARTCHAR V
ENCODING 86
SWIDTH 667 0
DWIDTH 10 0
BBX 10 10 1 0
BITMAP
F3C0
6180
6300
6200
6600
6400
2C00
3800
3800
3000
ENDCHAR
STARTCHAR W
ENCODING 87
SWIDTH 889 0
DWIDTH 13 0
BBX 14 10 1 0
BITMAP
F7BC
6318
6310
6330
6720
6760
2940
39C0
3180
3180
ENDCHAR
STARTCHAR X
ENCODING 88
SWIDTH 667 0
DWIDTH 9 0
BBX 10 10 0 0
BITMAP
7BC0
3180
1B00
1E00
0C00
0C00
1E00
3600
6300
F780
ENDCHAR
STARTCHAR Y
ENCODING 89
SWIDTH 611 0
DWIDTH 8 0
BBX 10 10 0 0
BITMAP
F3C0
6180
3300
3600
1C00
1800
1800
3000
3000
7800
ENDCHAR
STARTCHAR Z
ENCODING 90
SWIDTH 611 0
DWIDTH 8 0
BBX 9 10 0 0
BITMAP
3F80
3380
2300
0600
0C00
1800
3000
6100
E300
FF00
ENDCHAR
STARTCHAR bracketleft
ENCODING 91
SWIDTH 333 0
DWIDTH 6 0
BBX 7 13 0 -3
BITMAP
1E
18
18
30
30
30
60
60
60
C0
C0
C0
F0
ENDCHAR
STARTCHAR backslash
ENCODING 92
SWIDTH 278 0
DWIDTH 6 0
BBX 4 10 1 0
BITMAP
80
80
C0
40
40
20
20
30
10
10
ENDCHAR
STARTCHAR bracketright
ENCODING 93
SWIDTH 333 0
DWIDTH 5 0
BBX 7 13 -1 -3
BITMAP
1E
06
06
0C
0C
0C
18
18
18
30
30
30
F0
ENDCHAR
STARTCHAR asciicircum
ENCODING 94
SWIDTH 570 0
DWIDTH 8 0
BBX 6 6 1 4
BITMAP
18
38
6C
4C
CC
CC
ENDCHAR
STARTCHAR underscore
ENCODING 95
SWIDTH 500 0
DWIDTH 7 0
BBX 7 1 0 -2
BITMAP
FE
ENDCHAR
STARTCHAR grave
ENCODING 96
SWIDTH 333 0
DWIDTH 6 0
BBX 4 3 2 7
BITMAP
C0
60
10
ENDCHAR
STARTCHAR a
ENCODING 97
SWIDTH 500 0
DWIDTH 8 0
BBX 8 7 0 0
BITMAP
1A
76
66
CC
CC
FD
6E
ENDCHAR
STARTCHAR b
ENCODING 98
SWIDTH 500 0
DWIDTH 7 0
BBX 7 10 0 0
BITMAP
38
18
30
3C
76
66
66
CC
F8
60
ENDCHAR
STARTCHAR c
ENCODING 99
SWIDTH 444 0
DWIDTH 6 0
BBX 6 7 0 0
BITMAP
1C
74
60
C0
C0
E8
70
ENDCHAR
STARTCHAR d
ENCODING 100
SWIDTH 500 0
DWIDTH 7 0
BBX 8 10 0 0
BITMAP
07
03
06
36
6E
CC
CC
CC
F8
6C
ENDCHAR
STARTCHAR e
ENCODING 101
SWIDTH 444 0
DWIDTH 7 0
BBX 7 7 0 0
BITMAP
1C
76
66
F8
C0
EC
78
ENDCHAR
STARTCHAR f
ENCODING 102
SWIDTH 333 0
DWIDTH 5 0
BBX 9 13 -2 -3
BITMAP
0380
0680
0600
1F00
0C00
0C00
1800
1800
1800
3000
3000
B000
E000
ENDCHAR
STARTCHAR g
ENCODING 103
SWIDTH 500 0
DWIDTH 6 0
BBX 8 10 -1 -3
BITMAP
1F
36
66
66
3C
60
7C
CE
C6
7C
ENDCHAR
STARTCHAR h
ENCODING 104
SWIDTH 556 0
DWIDTH 8 0
BBX 8 10 0 0
BITMAP
38
18
30
36
3B
77
66
66
CC
CE
ENDCHAR
STARTCHAR i
ENCODING 105
SWIDTH 278 0
DWIDTH 4 0
BBX 5 10 0 0
BITMAP
18
18
00
70
30
60
60
C0
D0
E0
ENDCHAR
STARTCHAR j
ENCODING 106
SWIDTH 278 0
DWIDTH 4 0
BBX 7 13 -2 -3
BITMAP
06
06
00
1C
0C
08
18
18
18
30
30
A0
E0
ENDCHAR
STARTCHAR k
ENCODING 107
SWIDTH 500 0
DWIDTH 7 0
BBX 8 10 0 0
BITMAP
38
18
30
33
36
6C
78
6C
CC
CE
ENDCHAR
STARTCHAR l
ENCODING 108
SWIDTH 278 0
DWIDTH 4 0
BBX 5 10 0 0
BITMAP
38
18
30
30
30
60
60
C0
D0
60
ENDCHAR
STARTCHAR m
ENCODING 109
SWIDTH 778 0
DWIDTH 11 0
BBX 11 7 0 0
BITMAP
76C0
3FE0
6660
6660
66C0
CCC0
CCE0
ENDCHAR
STARTCHAR n
ENCODING 110
SWIDTH 556 0
DWIDTH 8 0
BBX 8 7 0 0
BITMAP
76
3B
77
66
66
CC
CE
ENDCHAR
STARTCHAR o
ENCODING 111
SWIDTH 500 0
DWIDTH 7 0
BBX 7 7 0 0
BITMAP
1C
76
66
C6
CC
DC
70
ENDCHAR
STARTCHAR p
ENCODING 112
SWIDTH 500 0
DWIDTH 7 0
BBX 9 10 -2 -3
BITMAP
3700
1D80
1980
1980
3300
3300
3C00
6000
6000
F000
ENDCHAR
STARTCHAR q
ENCODING 113
SWIDTH 500 0
DWIDTH 7 0
BBX 7 10 0 -3
BITMAP
1E
36
66
6C
CC
DC
78
18
30
78
ENDCHAR
STARTCHAR r
ENCODING 114
SWIDTH 389 0
DWIDTH 6 0
BBX 7 7 0 0
BITMAP
6C
3E
74
60
60
C0
C0
ENDCHAR
STARTCHAR s
ENCODING 115
SWIDTH 389 0
DWIDTH 6 0
BBX 6 7 0 0
BITMAP
3C
6C
60
30
18
D8
F0
ENDCHAR
STARTCHAR t
ENCODING 116
SWIDTH 278 0
DWIDTH 4 0
BBX 6 9 0 0
BITMAP
10
30
7C
20
60
60
C0
D0
E0
ENDCHAR
STARTCHAR u
ENCODING 117
SWIDTH 556 0
DWIDTH 7 0
BBX 7 7 0 0
BITMAP
F6
66
6C
CC
C8
FA
6C
ENDCHAR
STARTCHAR v
ENCODING 118
SWIDTH 444 0
DWIDTH 6 0
BBX 7 7 0 0
BITMAP
EE
66
64
6C
68
70
40
ENDCHAR
STARTCHAR w
ENCODING 119
SWIDTH 667 0
DWIDTH 9 0
BBX 10 7 0 0
BITMAP
E5C0
6480
6D80
6D00
7E00
6C00
4800
ENDCHAR
STARTCHAR x
ENCODING 120
SWIDTH 500 0
DWIDTH 6 0
BBX 8 7 -1 0
BITMAP
77
32
1C
18
2C
66
EE
ENDCHAR
STARTCHAR y
ENCODING 121
SWIDTH 444 0
DWIDTH 6 0
BBX 7 9 -1 -2
BITMAP
76
32
36
34
3C
18
18
D0
E0
ENDCHAR
STARTCHAR z
ENCODING 122
SWIDTH 389 0
DWIDTH 6 0
BBX 6 7 0 0
BITMAP
7C
6C
58
30
60
E4
BC
ENDCHAR
STARTCHAR braceleft
ENCODING 123
SWIDTH 348 0
DWIDTH 7 0
BBX 8 13 0 -3
BITMAP
07
0C
18
18
18
30
C0
60
60
60
C0
C0
70
ENDCHAR
STARTCHAR bar
ENCODING 124
SWIDTH 220 0
DWIDTH 4 0
BBX 1 10 2 0
BITMAP
80
80
80
80
80
80
80
80
80
80
ENDCHAR
STARTCHAR braceright
ENCODING 125
SWIDTH 348 0
DWIDTH 7 0
BBX 8 13 -2 -3
BITMAP
0E
03
03
06
06
06
03
0C
18
18
18
30
E0
ENDCHAR
STARTCHAR asciitilde
ENCODING 126
SWIDTH 570 0
DWIDTH 10 0
BBX 8 2 1 3
BITMAP
79
9E
ENDCHAR
STARTCHAR space
ENCODING 160
SWIDTH 250 0
DWIDTH 3 0
BBX 0 0 0 0
BITMAP
ENDCHAR
STARTCHAR exclamdown
ENCODING 161
SWIDTH 389 0
DWIDTH 7 0
BBX 5 10 1 -3
BITMAP
18
18
00
30
20
60
60
E0
C0
C0
ENDCHAR
STARTCHAR cent
ENCODING 162
SWIDTH 500 0
DWIDTH 7 0
BBX 7 9 0 -1
BITMAP
04
3C
6A
C8
D0
D0
E4
78
40
ENDCHAR
STARTCHAR sterling
ENCODING 163
SWIDTH 500 0
DWIDTH 7 0
BBX 7 10 0 0
BITMAP
0C
16
36
30
7C
30
30
60
BA
DC
ENDCHAR
STARTCHAR currency
ENCODING 164
SWIDTH 500 0
DWIDTH 8 0
BBX 6 6 1 2
BITMAP
CC
FC
48
48
FC
CC
ENDCHAR
STARTCHAR yen
ENCODING 165
SWIDTH 500 0
DWIDTH 7 0
BBX 8 10 0 0
BITMAP
F7
62
34
34
18
7C
10
7C
30
78
ENDCHAR
STARTCHAR brokenbar
ENCODING 166
SWIDTH 220 0
DWIDTH 4 0
BBX 1 10 2 0
BITMAP
80
80
80
80
00
00
80
80
80
80
ENDCHAR
STARTCHAR section
ENCODING 167
SWIDTH 500 0
DWIDTH 8 0
BBX 8 13 0 -3
BITMAP
1E
33
33
18
2C
66
66
66
34
18
CC
CC
78
ENDCHAR
STARTCHAR dieresis
ENCODING 168
SWIDTH 333 0
DWIDTH 6 0
BBX 4 2 2 8
BITMAP
90
90
ENDCHAR
STARTCHAR copyright
ENCODING 169
SWIDTH 747 0
DWIDTH 12 0
BBX 10 10 1 0
BITMAP
1E00
6180
4E80
9240
9040
9040
9240
4C80
6180
1E00
ENDCHAR
STARTCHAR ordfeminine
ENCODING 170
SWIDTH 266 0
DWIDTH 6 0
BBX 5 6 1 4
BITMAP
38
68
50
68
00
F0
ENDCHAR
STARTCHAR guillemotleft
ENCODING 171
SWIDTH 500 0
DWIDTH 8 0
BBX 7 5 1 1
BITMAP
36
6C
D8
D8
6C
ENDCHAR
STARTCHAR logicalnot
ENCODING 172
SWIDTH 606 0
DWIDTH 9 0
BBX 7 4 1 1
BITMAP
FE
02
02
02
ENDCHAR
STARTCHAR hyphen
ENCODING 173
SWIDTH 333 0
DWIDTH 5 0
BBX 4 2 0 2
BITMAP
F0
F0
ENDCHAR
STARTCHAR registered
ENCODING 174
SWIDTH 747 0
DWIDTH 12 0
BBX 10 10 1 0
BITMAP
1E00
6180
5C80
9240
9240
9C40
9440
5280
6180
1E00
ENDCHAR
STARTCHAR macron
ENCODING 175
SWIDTH 333 0
DWIDTH 6 0
BBX 4 1 2 8
BITMAP
F0
ENDCHAR
STARTCHAR degree
ENCODING 176
SWIDTH 400 0
DWIDTH 6 0
BBX 4 4 2 6
BITMAP
60
90
90
60
ENDCHAR
STARTCHAR plusminus
ENCODING 177
SWIDTH 570 0
DWIDTH 9 0
BBX 8 9 0 0
BITMAP
18
18
18
FF
18
18
18
00
FF
ENDCHAR
STARTCHAR twosuperior
ENCODING 178
SWIDTH 300 0
DWIDTH 4 0
BBX 5 6 0 4
BITMAP
30
58
18
30
60
F0
ENDCHAR
STARTCHAR threesuperior
ENCODING 179
SWIDTH 300 0
DWIDTH 4 0
BBX 5 6 0 4
BITMAP
70
18
30
18
B0
E0
ENDCHAR
STARTCHAR acute
ENCODING 180
SWIDTH 333 0
DWIDTH 6 0
BBX 4 3 2 7
BITMAP
30
60
80
ENDCHAR
STARTCHAR mu
ENCODING 181
SWIDTH 576 0
DWIDTH 7 0
BBX 8 10 -1 -3
BITMAP
7B
33
36
66
64
7D
76
C0
80
C0
ENDCHAR
STARTCHAR paragraph
ENCODING 182
SWIDTH 500 0
DWIDTH 8 0
BBX 8 13 1 -3
BITMAP
3F
7A
FA
FA
F4
F4
74
28
28
28
50
50
50
ENDCHAR
STARTCHAR periodcentered
ENCODING 183
SWIDTH 250 0
DWIDTH 4 0
BBX 2 2 1 3
BITMAP
C0
C0
ENDCHAR
STARTCHAR cedilla
ENCODING 184
SWIDTH 333 0
DWIDTH 5 0
BBX 5 3 -2 -3
BITMAP
10
98
70
ENDCHAR
STARTCHAR onesuperior
ENCODING 185
SWIDTH 300 0
DWIDTH 4 0
BBX 3 6 1 4
BITMAP
20
E0
60
40
40
E0
ENDCHAR
STARTCHAR ordmasculine
ENCODING 186
SWIDTH 300 0
DWIDTH 6 0
BBX 5 6 1 4
BITMAP
38
68
58
70
00
F0
ENDCHAR
STARTCHAR guillemotright
ENCODING 187
SWIDTH 500 0
DWIDTH 8 0
BBX 7 5 0 1
BITMAP
6C
36
36
6C
D8
ENDCHAR
STARTCHAR onequarter
ENCODING 188
SWIDTH 750 0
DWIDTH 10 0
BBX 8 10 1 0
BITMAP
22
E6
64
4C
49
F3
37
2A
7F
46
ENDCHAR
STARTCHAR onehalf
ENCODING 189
SWIDTH 750 0
DWIDTH 10 0
BBX 9 10 1 0
BITMAP
2200
E600
6400
4C00
4B00
F580
3180
2300
6600
4F00
ENDCHAR
STARTCHAR threequarters
ENCODING 190
SWIDTH 750 0
DWIDTH 10 0
BBX 9 10 0 0
BITMAP
7100
1B00
3200
1E00
B480
E980
1B80
1500
3F80
2300
ENDCHAR
STARTCHAR questiondown
ENCODING 191
SWIDTH 500 0
DWIDTH 8 0
BBX 6 10 1 -3
BITMAP
0C
0C
00
08
18
70
C0
CC
E4
78
ENDCHAR
STARTCHAR Agrave
ENCODING 192
SWIDTH 667 0
DWIDTH 9 0
BBX 10 14 -1 0
BITMAP
0600
0300
0080
0000
0180
0380
0380
0580
0D80
0980
1F80
2180
6180
F3C0
ENDCHAR
STARTCHAR Aacute
ENCODING 193
SWIDTH 667 0
DWIDTH 9 0
BBX 11 14 -1 0
BITMAP
0060
00C0
0100
0000
0180
0380
0380
0580
0D80
0980
1F80
2180
6180
F3C0
ENDCHAR
STARTCHAR Acircumflex
ENCODING 194
SWIDTH 667 0
DWIDTH 9 0
BBX 10 14 -1 0
BITMAP
0080
0180
0240
0000
0180
0380
0380
0580
0D80
0980
1F80
2180
6180
F3C0
ENDCHAR
STARTCHAR Atilde
ENCODING 195
SWIDTH 667 0
DWIDTH 9 0
BBX 10 13 -1 0
BITMAP
0340
0580
0000
0180
0380
0380
0580
0D80
0980
1F80
2180
6180
F3C0
ENDCHAR
STARTCHAR Adieresis
ENCODING 196
SWIDTH 667 0
DWIDTH 9 0
BBX 10 13 -1 0
BITMAP
0240
0240
0000
0180
0380
0380
0580
0D80
0980
1F80
2180
6180
F3C0
ENDCHAR
STARTCHAR Aring
ENCODING 197
SWIDTH 667 0
DWIDTH 9 0
BBX 10 14 -1 0
BITMAP
0180
0240
0180
0000
0180
0380
0380
0580
0D80
0980
1F80
2180
6180
F3C0
ENDCHAR
STARTCHAR AE
ENCODING 198
SWIDTH 944 0
DWIDTH 14 0
BBX 16 10 -1 0
BITMAP
07FF
0363
0260
04C4
0CFC
08C8
1FC0
2180
6186
F3FC
ENDCHAR
STARTCHAR Ccedilla
ENCODING 199
SWIDTH 667 0
DWIDTH 9 0
BBX 9 13 1 -3
BITMAP
1F80
3980
6100
6000
C000
C000
C000
C100
E600
7C00
1000
9800
7000
ENDCHAR
STARTCHAR Egrave
ENCODING 200
SWIDTH 667 0
DWIDTH 10 0
BBX 10 14 0 0
BITMAP
0C00
0600
0100
0000
3FC0
18C0
1800
3100
3F00
3200
7000
6000
6180
FF00
ENDCHAR
STARTCHAR Eacute
ENCODING 201
SWIDTH 667 0
DWIDTH 10 0
BBX 10 14 0 0
BITMAP
0180
0300
0400
0000
3FC0
18C0
1800
3100
3F00
3200
7000
6000
6180
FF00
ENDCHAR
STARTCHAR Ecircumflex
ENCODING 202
SWIDTH 667 0
DWIDTH 10 0
BBX 10 14 0 0
BITMAP
0200
0600
0900
0000
3FC0
18C0
1800
3100
3F00
3200
7000
6000
6180
FF00
ENDCHAR
STARTCHAR Edieresis
ENCODING 203
SWIDTH 667 0
DWIDTH 10 0
BBX 10 13 0 0
BITMAP
0480
0480
0000
3FC0
18C0
1800
3100
3F00
3200
7000
6000
6180
FF00
ENDCHAR
STARTCHAR Igrave
ENCODING 204
SWIDTH 389 0
DWIDTH 5 0
BBX 8 14 -1 0
BITMAP
18
0C
02
00
1F
0C
0C
18
18
18
30
30
30
F8
ENDCHAR
STARTCHAR Iacute
ENCODING 205
SWIDTH 389 0
DWIDTH 5 0
BBX 9 14 -1 0
BITMAP
0180
0300
0400
0000
1F00
0C00
0C00
1800
1800
1800
3000
3000
3000
F800
ENDCHAR
STARTCHAR Icircumflex
ENCODING 206
SWIDTH 389 0
DWIDTH 5 0
BBX 7 14 -1 0
BITMAP
04
0C
12
00
1E
0C
0C
18
18
18
30
30
30
F8
ENDCHAR
STARTCHAR Idieresis
ENCODING 207
SWIDTH 389 0
DWIDTH 5 0
BBX 8 13 -1 0
BITMAP
09
09
00
1F
0C
0C
18
18
18
30
30
30
F8
ENDCHAR
STARTCHAR Eth
ENCODING 208
SWIDTH 722 0
DWIDTH 10 0
BBX 10 10 0 0
BITMAP
3F00
1980
18C0
30C0
FCC0
30C0
2180
6180
6700
FC00
ENDCHAR
STARTCHAR Ntilde
ENCODING 209
SWIDTH 722 0
DWIDTH 11 0
BBX 13 13 0 0
BITMAP
01A0
02C0
0000
3C78
1C30
1C20
1660
3640
2640
23C0
6380
4180
E180
ENDCHAR
STARTCHAR Ograve
ENCODING 210
SWIDTH 722 0
DWIDTH 10 0
BBX 9 14 1 0
BITMAP
1800
0C00
0200
0000
1F00
3380
6180
6180
C180
C180
C300
C300
E600
7C00
ENDCHAR
STARTCHAR Oacute
ENCODING 211
SWIDTH 722 0
DWIDTH 10 0
BBX 9 14 1 0
BITMAP
0180
0300
0400
0000
1F00
3380
6180
6180
C180
C180
C300
C300
E600
7C00
ENDCHAR
STARTCHAR Ocircumflex
ENCODING 212
SWIDTH 722 0
DWIDTH 10 0
BBX 9 14 1 0
BITMAP
0200
0600
0900
0000
1F00
3380
6180
6180
C180
C180
C300
C300
E600
7C00
ENDCHAR
STARTCHAR Otilde
ENCODING 213
SWIDTH 722 0
DWIDTH 10 0
BBX 9 13 1 0
BITMAP
0D00
1600
0000
1F00
3380
6180
6180
C180
C180
C300
C300
E600
7C00
ENDCHAR
STARTCHAR Odieresis
ENCODING 214
SWIDTH 722 0
DWIDTH 10 0
BBX 9 13 1 0
BITMAP
0900
0900
0000
1F00
3380
6180
6180
C180
C180
C300
C300
E600
7C00
ENDCHAR
STARTCHAR multiply
ENCODING 215
SWIDTH 570 0
DWIDTH 9 0
BBX 8 7 0 0
BITMAP
C3
66
3C
18
3C
66
C3
ENDCHAR
STARTCHAR Oslash
ENCODING 216
SWIDTH 722 0
DWIDTH 10 0
BBX 9 12 1 -1
BITMAP
0180
1F00
3380
6780
6580
C980
D980
D300
E300
6600
7C00
C000
ENDCHAR
STARTCHAR Ugrave
ENCODING 217
SWIDTH 722 0
DWIDTH 10 0
BBX 11 14 1 0
BITMAP
0C00
0600
0100
0000
7DE0
30C0
3080
7180
6100
6100
E300
C200
C600
7C00
ENDCHAR
STARTCHAR Uacute
ENCODING 218
SWIDTH 722 0
DWIDTH 10 0
BBX 11 14 1 0
BITMAP
0180
0300
0400
0000
7DE0
30C0
3080
7180
6100
6100
E300
C200
C600
7C00
ENDCHAR
STARTCHAR Ucircumflex
ENCODING 219
SWIDTH 722 0
DWIDTH 10 0
BBX 11 14 1 0
BITMAP
0200
0600
0900
0000
7DE0
30C0
3080
7180
6100
6100
E300
C200
C600
7C00
ENDCHAR
STARTCHAR Udieresis
ENCODING 220
SWIDTH 722 0
DWIDTH 10 0
BBX 11 13 1 0
BITMAP
0900
0900
0000
7DE0
30C0
3080
7180
6100
6100
E300
C200
C600
7C00
ENDCHAR
STARTCHAR Yacute
ENCODING 221
SWIDTH 611 0
DWIDTH 8 0
BBX 10 14 0 0
BITMAP
0180
0300
0400
0000
F3C0
6180
3300
3600
1C00
1800
1800
3000
3000
7800
ENDCHAR
STARTCHAR Thorn
ENCODING 222
SWIDTH 611 0
DWIDTH 9 0
BBX 9 10 0 0
BITMAP
3C00
1800
1F00
3180
3180
3380
3F00
6000
6000
F000
ENDCHAR
STARTCHAR germandbls
ENCODING 223
SWIDTH 500 0
DWIDTH 7 0
BBX 10 13 -3 -3
BITMAP
0380
06C0
04C0
0C80
0D80
0CC0
18C0
18C0
1980
1B00
3000
B000
E000
ENDCHAR
STARTCHAR agrave
ENCODING 224
SWIDTH 500 0
DWIDTH 8 0
BBX 8 11 0 0
BITMAP
30
18
04
00
1A
76
66
CC
CC
FD
6E
ENDCHAR
STARTCHAR aacute
ENCODING 225
SWIDTH 500 0
DWIDTH 8 0
BBX 8 11 0 0
BITMAP
06
0C
10
00
1A
76
66
CC
CC
FD
6E
ENDCHAR
STARTCHAR acircumflex
ENCODING 226
SWIDTH 500 0
DWIDTH 8 0
BBX 8 11 0 0
BITMAP
08
18
24
00
1A
76
66
CC
CC
FD
6E
ENDCHAR
STARTCHAR atilde
ENCODING 227
SWIDTH 500 0
DWIDTH 8 0
BBX 8 10 0 0
BITMAP
1A
2C
00
1A
76
66
CC
CC
FD
6E
ENDCHAR
STARTCHAR adieresis
ENCODING 228
SWIDTH 500 0
DWIDTH 8 0
BBX 8 10 0 0
BITMAP
12
12
00
1A
76
66
CC
CC
FD
6E
ENDCHAR
STARTCHAR aring
ENCODING 229
SWIDTH 500 0
DWIDTH 8 0
BBX 8 11 0 0
BITMAP
0C
12
0C
00
1A
76
66
CC
CC
FD
6E
ENDCHAR
STARTCHAR ae
ENCODING 230
SWIDTH 722 0
DWIDTH 11 0
BBX 11 7 0 0
BITMAP
1EC0
7360
66E0
CF80
CC00
FCC0
6F80
ENDCHAR
STARTCHAR ccedilla
ENCODING 231
SWIDTH 444 0
DWIDTH 6 0
BBX 7 10 -1 -3
BITMAP
0E
3A
30
60
60
74
38
10
98
70
ENDCHAR
STARTCHAR egrave
ENCODING 232
SWIDTH 444 0
DWIDTH 7 0
BBX 7 11 0 0
BITMAP
60
30
08
00
1C
76
66
F8
C0
EC
78
ENDCHAR
STARTCHAR eacute
ENCODING 233
SWIDTH 444 0
DWIDTH 7 0
BBX 7 11 0 0
BITMAP
06
0C
10
00
1C
76
66
F8
C0
EC
78
ENDCHAR
STARTCHAR ecircumflex
ENCODING 234
SWIDTH 444 0
DWIDTH 7 0
BBX 7 11 0 0
BITMAP
08
18
24
00
1C
76
66
F8
C0
EC
78
ENDCHAR
STARTCHAR edieresis
ENCODING 235
SWIDTH 444 0
DWIDTH 7 0
BBX 7 10 0 0
BITMAP
24
24
00
1C
76
66
F8
C0
EC
78
ENDCHAR
STARTCHAR igrave
ENCODING 236
SWIDTH 278 0
DWIDTH 4 0
BBX 4 11 0 0
BITMAP
C0
60
10
00
70
30
60
60
C0
D0
E0
ENDCHAR
STARTCHAR iacute
ENCODING 237
SWIDTH 278 0
DWIDTH 4 0
BBX 6 11 0 0
BITMAP
0C
18
20
00
70
30
60
60
C0
D0
E0
ENDCHAR
STARTCHAR icircumflex
ENCODING 238
SWIDTH 278 0
DWIDTH 4 0
BBX 5 11 0 0
BITMAP
10
30
48
00
70
30
60
60
C0
D0
E0
ENDCHAR
STARTCHAR idieresis
ENCODING 239
SWIDTH 278 0
DWIDTH 4 0
BBX 5 10 0 0
BITMAP
48
48
00
70
30
60
60
C0
D0
E0
ENDCHAR
STARTCHAR eth
ENCODING 240
SWIDTH 500 0
DWIDTH 7 0
BBX 7 10 0 0
BITMAP
36
18
2C
1E
76
66
C6
CC
DC
70
ENDCHAR
STARTCHAR ntilde
ENCODING 241
SWIDTH 556 0
DWIDTH 8 0
BBX 8 10 0 0
BITMAP
0D
16
00
76
3B
77
66
66
CC
CE
ENDCHAR
STARTCHAR ograve
ENCODING 242
SWIDTH 500 0
DWIDTH 7 0
BBX 7 11 0 0
BITMAP
60
30
08
00
1C
76
66
C6
CC
DC
70
ENDCHAR
STARTCHAR oacute
ENCODING 243
SWIDTH 500 0
DWIDTH 7 0
BBX 8 11 0 0
BITMAP
03
06
08
00
1C
76
66
C6
CC
DC
70
ENDCHAR
STARTCHAR ocircumflex
ENCODING 244
SWIDTH 500 0
DWIDTH 7 0
BBX 7 11 0 0
BITMAP
08
18
24
00
1C
76
66
C6
CC
DC
70
ENDCHAR
STARTCHAR otilde
ENCODING 245
SWIDTH 500 0
DWIDTH 7 0
BBX 7 10 0 0
BITMAP
1A
2C
00
1C
76
66
C6
CC
DC
70
ENDCHAR
STARTCHAR odieresis
ENCODING 246
SWIDTH 500 0
DWIDTH 7 0
BBX 7 10 0 0
BITMAP
12
12
00
1C
76
66
C6
CC
DC
70
ENDCHAR
STARTCHAR divide
ENCODING 247
SWIDTH 570 0
DWIDTH 9 0
BBX 8 7 0 0
BITMAP
18
18
00
FF
00
18
18
ENDCHAR
STARTCHAR oslash
ENCODING 248
SWIDTH 500 0
DWIDTH 7 0
BBX 7 9 0 -1
BITMAP
02
1C
76
6E
D6
EC
DC
70
80
ENDCHAR
STARTCHAR ugrave
ENCODING 249
SWIDTH 556 0
DWIDTH 7 0
BBX 7 11 0 0
BITMAP
60
30
08
00
F6
66
6C
CC
C8
FA
6C
ENDCHAR
STARTCHAR uacute
ENCODING 250
SWIDTH 556 0
DWIDTH 7 0
BBX 7 11 0 0
BITMAP
06
0C
10
00
F6
66
6C
CC
C8
FA
6C
ENDCHAR
STARTCHAR ucircumflex
ENCODING 251
SWIDTH 556 0
DWIDTH 7 0
BBX 7 11 0 0
BITMAP
08
18
24
00
F6
66
6C
CC
C8
FA
6C
ENDCHAR
STARTCHAR udieresis
ENCODING 252
SWIDTH 556 0
DWIDTH 7 0
BBX 7 10 0 0
BITMAP
24
24
00
F6
66
6C
CC
C8
FA
6C
ENDCHAR
STARTCHAR yacute
ENCODING 253
SWIDTH 444 0
DWIDTH 6 0
BBX 8 13 -1 -2
BITMAP
03
06
08
00
76
32
36
34
3C
18
18
D0
E0
ENDCHAR
STARTCHAR thorn
ENCODING 254
SWIDTH 500 0
DWIDTH 7 0
BBX 9 13 -2 -3
BITMAP
0E00
0600
0C00
0F00
1D80
1980
1980
3300
3300
3C00
6000
6000
F000
ENDCHAR
STARTCHAR ydieresis
ENCODING 255
SWIDTH 444 0
DWIDTH 6 0
BBX 7 12 -1 -2
BITMAP
12
12
00
76
32
36
34
3C
18
18
D0
E0
ENDCHAR
STARTCHAR uni0400
ENCODING 1024
SWIDTH 667 0
DWIDTH 10 0
BBX 10 14 0 0
BITMAP
0C00
0600
0100
0000
3FC0
18C0
1800
3100
3F00
3200
7000
6000
6180
FF00
ENDCHAR
STARTCHAR afii10023
ENCODING 1025
SWIDTH 667 0
DWIDTH 10 0
BBX 10 13 0 0
BITMAP
0480
0480
0000
3FC0
18C0
1800
3100
3F00
3200
7000
6000
6180
FF00
ENDCHAR
STARTCHAR afii10051
ENCODING 1026
SWIDTH 960 0
DWIDTH 14 0
BBX 11 13 2 -3
BITMAP
FFC0
CCC0
0C00
1800
1BC0
1C60
3060
3060
30C0
78C0
0180
0300
0E00
ENDCHAR
STARTCHAR afii10052
ENCODING 1027
SWIDTH 617 0
DWIDTH 9 0
BBX 10 14 0 0
BITMAP
0180
0300
0400
0000
3FC0
18C0
1800
3000
3000
3000
7000
6000
6000
F000
ENDCHAR
STARTCHAR afii10053
ENCODING 1028
SWIDTH 617 0
DWIDTH 9 0
BBX 9 10 1 0
BITMAP
1F80
3980
6100
6000
F800
C000
C000
C100
E600
7C00
ENDCHAR
STARTCHAR afii10054
ENCODING 1029
SWIDTH 556 0
DWIDTH 8 0
BBX 9 10 0 0
BITMAP
1F80
3180
3100
3800
1C00
0E00
0600
8600
CE00
FC00
ENDCHAR
STARTCHAR afii10055
ENCODING 1030
SWIDTH 389 0
DWIDTH 5 0
BBX 8 10 -1 0
BITMAP
1F
0C
0C
18
18
18
30
30
30
F8
ENDCHAR
STARTCHAR afii10056
ENCODING 1031
SWIDTH 389 0
DWIDTH 5 0
BBX 8 13 -1 0
BITMAP
09
09
00
1F
0C
0C
18
18
18
30
30
30
F8
ENDCHAR
STARTCHAR afii10057
ENCODING 1032
SWIDTH 500 0
DWIDTH 7 0
BBX 8 11 0 -1
BITMAP
0F
06
06
0C
0C
0C
18
18
D8
F0
60
ENDCHAR
STARTCHAR afii10058
ENCODING 1033
SWIDTH 1028 0
DWIDTH 15 0
BBX 15 10 0 0
BITMAP
0FF0
0460
0460
08C0
08FC
08CE
1186
1186
A18C
C3F8
ENDCHAR
STARTCHAR afii10059
ENCODING 1034
SWIDTH 1028 0
DWIDTH 15 0
BBX 15 10 0 0
BITMAP
3CF0
1860
1860
30C0
3FFC
30CE
6186
6186
618C
F3F8
ENDCHAR
STARTCHAR afii10060
ENCODING 1035
SWIDTH 960 0
DWIDTH 14 0
BBX 11 10 2 0
BITMAP
FFC0
CCC0
0C00
1800
1BC0
1C60
3060
30C0
30C0
79E0
ENDCHAR
STARTCHAR afii10061
ENCODING 1036
SWIDTH 754 0
DWIDTH 11 0
BBX 11 14 0 0
BITMAP
00C0
0180
0200
0000
3DE0
18C0
1900
3200
3400
3C00
3600
6300
6180
F3C0
ENDCHAR
STARTCHAR afii10062
ENCODING 1038
SWIDTH 685 0
DWIDTH 10 0
BBX 11 13 0 0
BITMAP
0480
0700
0000
79E0
30C0
3080
1900
1900
1A00
0C00
0800
D000
6000
ENDCHAR
STARTCHAR afii10145
ENCODING 1039
SWIDTH 754 0
DWIDTH 11 0
BBX 12 11 0 -1
BITMAP
3CF0
1860
1860
30C0
30C0
30C0
6180
6180
6180
FFC0
0C00
ENDCHAR
STARTCHAR afii10017
ENCODING 1040
SWIDTH 617 0
DWIDTH 9 0
BBX 10 10 -1 0
BITMAP
0180
0380
0380
0580
0D80
0980
1F80
2180
6180
F3C0
ENDCHAR
STARTCHAR afii10018
ENCODING 1041
SWIDTH 617 0
DWIDTH 9 0
BBX 10 10 0 0
BITMAP
3FC0
18C0
1800
3000
3F00
3380
7180
6180
6300
FE00
ENDCHAR
STARTCHAR afii10019
ENCODING 1042
SWIDTH 617 0
DWIDTH 9 0
BBX 10 10 0 0
BITMAP
3F80
18C0
18C0
3180
3F00
3380
7180
6180
6300
FE00
ENDCHAR
STARTCHAR afii10020
ENCODING 1043
SWIDTH 617 0
DWIDTH 9 0
BBX 10 10 0 0
BITMAP
3FC0
18C0
1800
3000
3000
3000
7000
6000
6000
F000
ENDCHAR
STARTCHAR afii10021
ENCODING 1044
SWIDTH 754 0
DWIDTH 11 0
BBX 13 11 -1 -1
BITMAP
07F8
0230
0230
0460
0460
0460
08C0
08C0
10C0
7FE0
C0C0
ENDCHAR
STARTCHAR afii10022
ENCODING 1045
SWIDTH 685 0
DWIDTH 10 0
BBX 10 10 0 0
BITMAP
3FC0
18C0
1800
3100
3F00
3200
7000
6000
6180
FF00
ENDCHAR
STARTCHAR afii10024
ENCODING 1046
SWIDTH 1028 0
DWIDTH 15 0
BBX 15 10 0 0
BITMAP
1DEE
0CCC
04C8
0590
05A0
0FE0
19B0
3330
6318
F7BC
ENDCHAR
STARTCHAR afii10025
ENCODING 1047
SWIDTH 617 0
DWIDTH 9 0
BBX 9 10 1 0
BITMAP
2F00
3180
2180
0300
1E00
0700
0300
8300
C600
7C00
ENDCHAR
STARTCHAR afii10026
ENCODING 1048
SWIDTH 754 0
DWIDTH 11 0
BBX 12 10 0 0
BITMAP
3CF0
1860
18E0
31C0
32C0
34C0
6980
7180
6180
F3C0
ENDCHAR
STARTCHAR afii10027
ENCODING 1049
SWIDTH 754 0
DWIDTH 11 0
BBX 12 13 0 0
BITMAP
0240
0380
0000
3CF0
1860
18E0
31C0
32C0
34C0
6980
7180
6180
F3C0
ENDCHAR
STARTCHAR afii10028
ENCODING 1050
SWIDTH 754 0
DWIDTH 11 0
BBX 11 10 0 0
BITMAP
3DE0
18C0
1900
3200
3400
3C00
3600
6300
6180
F3C0
ENDCHAR
STARTCHAR afii10029
ENCODING 1051
SWIDTH 754 0
DWIDTH 11 0
BBX 12 10 0 0
BITMAP
0FF0
0460
0460
08C0
08C0
08C0
1180
1180
A180
C3C0
ENDCHAR
STARTCHAR afii10030
ENCODING 1052
SWIDTH 891 0
DWIDTH 13 0
BBX 15 10 -1 0
BITMAP
1C0E
0C1C
1E2C
1658
1658
3698
2730
2730
6630
E678
ENDCHAR
STARTCHAR afii10031
ENCODING 1053
SWIDTH 754 0
DWIDTH 11 0
BBX 12 10 0 0
BITMAP
3CF0
1860
1860
30C0
3FC0
30C0
6180
6180
6180
F3C0
ENDCHAR
STARTCHAR afii10032
ENCODING 1054
SWIDTH 685 0
DWIDTH 10 0
BBX 9 10 1 0
BITMAP
1F00
3380
6180
6180
C180
C180
C300
C300
E600
7C00
ENDCHAR
STARTCHAR afii10033
ENCODING 1055
SWIDTH 754 0
DWIDTH 11 0
BBX 12 10 0 0
BITMAP
3FF0
1860
1860
30C0
30C0
30C0
6180
6180
6180
F3C0
ENDCHAR
STARTCHAR afii10034
ENCODING 1056
SWIDTH 617 0
DWIDTH 9 0
BBX 10 10 0 0
BITMAP
3F80
18C0
18C0
31C0
3F80
3000
3000
6000
6000
F000
ENDCHAR
STARTCHAR afii10035
ENCODING 1057
SWIDTH 617 0
DWIDTH 9 0
BBX 9 10 1 0
BITMAP
1F80
3980
6100
6000
C000
C000
C000
C100
E600
7C00
ENDCHAR
STARTCHAR afii10036
ENCODING 1058
SWIDTH 685 0
DWIDTH 10 0
BBX 10 10 2 0
BITMAP
FFC0
CCC0
8C80
1800
1800
1800
3000
3000
7000
F800
ENDCHAR
STARTCHAR afii10037
ENCODING 1059
SWIDTH 685 0
DWIDTH 10 0
BBX 11 10 0 0
BITMAP
79E0
30C0
3080
1900
1900
1A00
0C00
0800
D000
6000
ENDCHAR
STARTCHAR afii10038
ENCODING 1060
SWIDTH 822 0
DWIDTH 12 0
BBX 11 10 1 0
BITMAP
07C0
0300
3FC0
6660
C660
CC60
CCC0
7F80
0C00
3E00
ENDCHAR
STARTCHAR afii10039
ENCODING 1061
SWIDTH 617 0
DWIDTH 9 0
BBX 10 10 0 0
BITMAP
7BC0
3180
1B00
1E00
0C00
0C00
1E00
3600
6300
F780
ENDCHAR
STARTCHAR afii10040
ENCODING 1062
SWIDTH 754 0
DWIDTH 11 0
BBX 12 11 0 -1
BITMAP
3CF0
1860
1860
30C0
30C0
30C0
6180
6180
6180
FFC0
0180
ENDCHAR
STARTCHAR afii10041
ENCODING 1063
SWIDTH 754 0
DWIDTH 11 0
BBX 10 10 2 0
BITMAP
F3C0
6180
6180
C300
C700
7B00
0600
0600
0600
0F00
ENDCHAR
STARTCHAR afii10042
ENCODING 1064
SWIDTH 1028 0
DWIDTH 15 0
BBX 16 10 0 0
BITMAP
3DEF
18C6
18C6
318C
318C
318C
6318
6318
6318
FFFC
ENDCHAR
STARTCHAR afii10043
ENCODING 1065
SWIDTH 1028 0
DWIDTH 15 0
BBX 16 11 0 -1
BITMAP
3DEF
18C6
18C6
318C
318C
318C
6318
6318
6318
FFFC
0018
ENDCHAR
STARTCHAR afii10044
ENCODING 1066
SWIDTH 754 0
DWIDTH 11 0
BBX 9 10 2 0
BITMAP
FC00
D800
9800
3000
3F00
3380
7180
6180
6300
FE00
ENDCHAR
STARTCHAR afii10045
ENCODING 1067
SWIDTH 960 0
DWIDTH 14 0
BBX 15 10 0 0
BITMAP
3C1E
180C
180C
3018
3F18
3398
71B0
61B0
6330
FE78
ENDCHAR
STARTCHAR afii10046
ENCODING 1068
SWIDTH 617 0
DWIDTH 9 0
BBX 9 10 0 0
BITMAP
3C00
1800
1800
3000
3F00
3380
7180
6180
6300
FE00
ENDCHAR
STARTCHAR afii10047
ENCODING 1069
SWIDTH 685 0
DWIDTH 10 0
BBX 9 10 1 0
BITMAP
2F00
3380
2180
0180
0F80
0180
0300
8300
C600
7C00
ENDCHAR
STARTCHAR afii10048
ENCODING 1070
SWIDTH 1028 0
DWIDTH 15 0
BBX 15 10 0 0
BITMAP
3C7C
18CE
1986
3186
3F06
3306
630C
630C
6398
F1F0
ENDCHAR
STARTCHAR afii10049
ENCODING 1071
SWIDTH 685 0
DWIDTH 10 0
BBX 12 10 -1 0
BITMAP
07F0
0C60
1860
1CE0
0FC0
06C0
1CC0
3980
7180
E3C0
ENDCHAR
STARTCHAR afii10065
ENCODING 1072
SWIDTH 548 0
DWIDTH 8 0
BBX 8 7 0 0
BITMAP
1A
76
66
CC
CC
FD
6E
ENDCHAR
STARTCHAR afii10066
ENCODING 1073
SWIDTH 480 0
DWIDTH 7 0
BBX 9 10 0 0
BITMAP
0380
0F00
1800
2C00
7E00
6600
C600
CC00
DC00
7000
ENDCHAR
STARTCHAR afii10067
ENCODING 1074
SWIDTH 480 0
DWIDTH 7 0
BBX 7 7 0 0
BITMAP
1C
76
6C
F8
CC
CC
78
ENDCHAR
STARTCHAR afii10068
ENCODING 1075
SWIDTH 411 0
DWIDTH 6 0
BBX 6 7 0 0
BITMAP
38
4C
18
30
60
C8
70
ENDCHAR
STARTCHAR afii10069
ENCODING 1076
SWIDTH 480 0
DWIDTH 7 0
BBX 7 10 0 0
BITMAP
18
0C
04
1E
76
66
C6
CC
DC
70
ENDCHAR
STARTCHAR afii10070
ENCODING 1077
SWIDTH 480 0
DWIDTH 7 0
BBX 7 7 0 0
BITMAP
1C
76
66
F8
C0
EC
78
ENDCHAR
STARTCHAR afii10072
ENCODING 1078
SWIDTH 891 0
DWIDTH 13 0
BBX 13 7 0 0
BITMAP
1998
29A8
0B60
0FC0
1B60
B668
6630
ENDCHAR
STARTCHAR afii10073
ENCODING 1079
SWIDTH 480 0
DWIDTH 7 0
BBX 7 7 0 0
BITMAP
3C
26
0C
38
0C
9C
78
ENDCHAR
STARTCHAR afii10074
ENCODING 1080
SWIDTH 480 0
DWIDTH 7 0
BBX 7 7 0 0
BITMAP
F6
66
6C
CC
C8
FA
6C
ENDCHAR
STARTCHAR afii10075
ENCODING 1081
SWIDTH 480 0
DWIDTH 7 0
BBX 7 10 0 0
BITMAP
1A
1C
00
F6
66
6C
CC
C8
FA
6C
ENDCHAR
STARTCHAR afii10076
ENCODING 1082
SWIDTH 480 0
DWIDTH 7 0
BBX 8 7 0 0
BITMAP
73
36
6C
78
6C
CC
CE
ENDCHAR
STARTCHAR afii10077
ENCODING 1083
SWIDTH 480 0
DWIDTH 7 0
BBX 8 7 -1 0
BITMAP
06
0B
16
16
24
AD
46
ENDCHAR
STARTCHAR afii10078
ENCODING 1084
SWIDTH 685 0
DWIDTH 10 0
BBX 11 7 -1 0
BITMAP
0C60
0CE0
1D40
1DC0
2E80
ADA0
49C0
ENDCHAR
STARTCHAR afii10079
ENCODING 1085
SWIDTH 548 0
DWIDTH 8 0
BBX 8 7 0 0
BITMAP
73
33
66
7E
66
CC
CE
ENDCHAR
STARTCHAR afii10080
ENCODING 1086
SWIDTH 480 0
DWIDTH 7 0
BBX 7 7 0 0
BITMAP
1C
76
66
C6
CC
DC
70
ENDCHAR
STARTCHAR afii10081
ENCODING 1087
SWIDTH 548 0
DWIDTH 8 0
BBX 8 7 0 0
BITMAP
76
3B
77
66
66
CC
CE
ENDCHAR
STARTCHAR afii10082
ENCODING 1088
SWIDTH 480 0
DWIDTH 7 0
BBX 9 10 -2 -3
BITMAP
3700
1D80
1980
1980
3300
3300
3C00
6000
6000
F000
ENDCHAR
STARTCHAR afii10083
ENCODING 1089
SWIDTH 411 0
DWIDTH 6 0
BBX 6 7 0 0
BITMAP
1C
74
60
C0
C0
E8
70
ENDCHAR
STARTCHAR afii10084
ENCODING 1090
SWIDTH 754 0
DWIDTH 11 0
BBX 11 7 0 0
BITMAP
76C0
3FE0
6660
6660
66C0
CCC0
CCE0
ENDCHAR
STARTCHAR afii10085
ENCODING 1091
SWIDTH 411 0
DWIDTH 6 0
BBX 7 9 -1 -2
BITMAP
76
32
36
34
3C
18
18
D0
E0
ENDCHAR
STARTCHAR afii10086
ENCODING 1092
SWIDTH 754 0
DWIDTH 11 0
BBX 11 13 0 -3
BITMAP
0180
0300
0300
1AC0
3760
6660
6460
CCC0
CCC0
7F00
1800
1800
3000
ENDCHAR
STARTCHAR afii10087
ENCODING 1093
SWIDTH 411 0
DWIDTH 6 0
BBX 8 7 -1 0
BITMAP
77
32
1C
18
2C
66
EE
ENDCHAR
STARTCHAR afii10088
ENCODING 1094
SWIDTH 480 0
DWIDTH 7 0
BBX 7 9 0 -2
BITMAP
F6
66
6C
CC
C8
FA
6C
08
18
ENDCHAR
STARTCHAR afii10089
ENCODING 1095
SWIDTH 480 0
DWIDTH 7 0
BBX 7 7 0 0
BITMAP
E6
66
CC
DC
78
1A
0C
ENDCHAR
STARTCHAR afii10090
ENCODING 1096
SWIDTH 754 0
DWIDTH 11 0
BBX 11 7 0 0
BITMAP
E660
6660
6CC0
CCC0
CC80
FFA0
6DC0
ENDCHAR
STARTCHAR afii10091
ENCODING 1097
SWIDTH 754 0
DWIDTH 11 0
BBX 11 9 0 -2
BITMAP
E660
6660
6CC0
CCC0
CC80
FFA0
6DC0
0080
0180
ENDCHAR
STARTCHAR afii10092
ENCODING 1098
SWIDTH 548 0
DWIDTH 8 0
BBX 8 7 0 0
BITMAP
58
F8
B6
3B
63
66
3C
ENDCHAR
STARTCHAR afii10093
ENCODING 1099
SWIDTH 754 0
DWIDTH 11 0
BBX 11 7 0 0
BITMAP
7060
3060
6CC0
76C0
C780
CDA0
78C0
ENDCHAR
STARTCHAR afii10094
ENCODING 1100
SWIDTH 480 0
DWIDTH 7 0
BBX 7 7 0 0
BITMAP
70
30
6C
76
C6
CC
78
ENDCHAR
STARTCHAR afii10095
ENCODING 1101
SWIDTH 411 0
DWIDTH 6 0
BBX 6 7 0 0
BITMAP
38
2C
0C
3C
18
B8
60
ENDCHAR
STARTCHAR afii10096
ENCODING 1102
SWIDTH 754 0
DWIDTH 11 0
BBX 11 7 0 0
BITMAP
71C0
3760
6660
7C60
6CC0
CDC0
C700
ENDCHAR
STARTCHAR afii10097
ENCODING 1103
SWIDTH 548 0
DWIDTH 8 0
BBX 8 7 0 0
BITMAP
1F
33
36
1E
14
AD
C6
ENDCHAR
STARTCHAR uni0450
ENCODING 1104
SWIDTH 444 0
DWIDTH 7 0
BBX 7 11 0 0
BITMAP
60
30
08
00
1C
76
66
F8
C0
EC
78
ENDCHAR
STARTCHAR afii10071
ENCODING 1105
SWIDTH 444 0
DWIDTH 7 0
BBX 7 10 0 0
BITMAP
24
24
00
1C
76
66
F8
C0
EC
78
ENDCHAR
STARTCHAR afii10099
ENCODING 1106
SWIDTH 548 0
DWIDTH 8 0
BBX 8 13 0 -3
BITMAP
38
18
7C
36
3B
77
66
66
CC
CC
18
30
60
ENDCHAR
STARTCHAR afii10100
ENCODING 1107
SWIDTH 480 0
DWIDTH 7 0
BBX 8 11 0 0
BITMAP
03
06
08
00
3C
46
0C
38
60
C4
78
ENDCHAR
STARTCHAR afii10101
ENCODING 1108
SWIDTH 411 0
DWIDTH 6 0
BBX 6 7 0 0
BITMAP
1C
74
60
F0
C0
E8
70
ENDCHAR
STARTCHAR afii10102
ENCODING 1109
SWIDTH 389 0
DWIDTH 6 0
BBX 6 7 0 0
BITMAP
3C
6C
60
30
18
D8
F0
ENDCHAR
STARTCHAR afii10103
ENCODING 1110
SWIDTH 278 0
DWIDTH 4 0
BBX 5 10 0 0
BITMAP
18
18
00
70
30
60
60
C0
D0
E0
ENDCHAR
STARTCHAR afii10104
ENCODING 1111
SWIDTH 278 0
DWIDTH 4 0
BBX 5 10 0 0
BITMAP
48
48
00
70
30
60
60
C0
D0
E0
ENDCHAR
STARTCHAR afii10105
ENCODING 1112
SWIDTH 278 0
DWIDTH 4 0
BBX 7 13 -2 -3
BITMAP
06
06
00
1C
0C
08
18
18
18
30
30
A0
E0
ENDCHAR
STARTCHAR afii10106
ENCODING 1113
SWIDTH 685 0
DWIDTH 10 0
BBX 11 7 -1 0
BITMAP
0600
0B00
16C0
1760
2460
ACC0
4780
ENDCHAR
STARTCHAR afii10107
ENCODING 1114
SWIDTH 754 0
DWIDTH 11 0
BBX 11 7 0 0
BITMAP
7300
3300
66C0
7F60
6660
CCC0
C780
ENDCHAR
STARTCHAR afii10108
ENCODING 1115
SWIDTH 548 0
DWIDTH 8 0
BBX 8 10 0 0
BITMAP
38
18
7C
36
3B
77
66
66
CC
CE
ENDCHAR
STARTCHAR afii10109
ENCODING 1116
SWIDTH 480 0
DWIDTH 7 0
BBX 8 11 0 0
BITMAP
03
06
08
00
73
36
6C
78
6C
CC
CE
ENDCHAR
STARTCHAR afii10110
ENCODING 1118
SWIDTH 411 0
DWIDTH 6 0
BBX 7 12 -1 -2
BITMAP
1A
1C
00
76
32
36
34
3C
18
18
D0
E0
ENDCHAR
STARTCHAR afii10193
ENCODING 1119
SWIDTH 480 0
DWIDTH 7 0
BBX 7 9 0 -2
BITMAP
F6
66
6C
CC
C8
FA
6C
20
60
ENDCHAR
STARTCHAR afii10146
ENCODING 1122
SWIDTH 754 0
DWIDTH 11 0
BBX 9 10 2 0
BITMAP
3C00
1800
FE00
3000
3F00
3380
7180
6180
6300
FE00
ENDCHAR
STARTCHAR afii10194
ENCODING 1123
SWIDTH 548 0
DWIDTH 8 0
BBX 7 10 1 0
BITMAP
38
18
30
FC
30
6C
76
C6
CC
78
ENDCHAR
STARTCHAR afii10147
ENCODING 1138
SWIDTH 685 0
DWIDTH 10 0
BBX 9 10 1 0
BITMAP
1F00
3380
6180
6180
FF80
C180
C300
C300
E600
7C00
ENDCHAR
STARTCHAR afii10195
ENCODING 1139
SWIDTH 480 0
DWIDTH 7 0
BBX 7 7 0 0
BITMAP
1C
76
66
FE
CC
DC
70
ENDCHAR
STARTCHAR afii10148
ENCODING 1140
SWIDTH 685 0
DWIDTH 10 0
BBX 10 10 1 0
BITMAP
F0C0
61C0
6300
6200
6600
6400
2C00
3800
3800
3000
ENDCHAR
STARTCHAR afii10196
ENCODING 1141
SWIDTH 411 0
DWIDTH 6 0
BBX 7 7 0 0
BITMAP
E6
6E
68
68
70
60
40
ENDCHAR
STARTCHAR afii10050
ENCODING 1168
SWIDTH 617 0
DWIDTH 9 0
BBX 10 11 0 0
BITMAP
00C0
3FC0
1800
1800
3000
3000
3000
7000
6000
6000
F000
ENDCHAR
STARTCHAR afii10098
ENCODING 1169
SWIDTH 411 0
DWIDTH 6 0
BBX 7 8 0 0
BITMAP
06
7C
30
60
60
C0
C0
60
ENDCHAR
STARTCHAR uni04AA
ENCODING 1194
SWIDTH 667 0
DWIDTH 9 0
BBX 9 13 1 -3
BITMAP
1F80
3980
6100
6000
C000
C000
C000
C100
E600
7C00
1000
9800
7000
ENDCHAR
STARTCHAR uni04AB
ENCODING 1195
SWIDTH 444 0
DWIDTH 6 0
BBX 7 10 -1 -3
BITMAP
0E
3A
30
60
60
74
38
10
98
70
ENDCHAR
STARTCHAR uni04AE
ENCODING 1198
SWIDTH 611 0
DWIDTH 8 0
BBX 10 10 0 0
BITMAP
F3C0
6180
3300
3600
1C00
1800
1800
3000
3000
7800
ENDCHAR
STARTCHAR uni04C0
ENCODING 1216
SWIDTH 389 0
DWIDTH 5 0
BBX 8 10 -1 0
BITMAP
1F
0C
0C
18
18
18
30
30
30
F8
ENDCHAR
STARTCHAR uni04D2
ENCODING 1234
SWIDTH 667 0
DWIDTH 9 0
BBX 10 13 -1 0
BITMAP
0240
0240
0000
0180
0380
0380
0580
0D80
0980
1F80
2180
6180
F3C0
ENDCHAR
STARTCHAR uni04D3
ENCODING 1235
SWIDTH 500 0
DWIDTH 8 0
BBX 8 10 0 0
BITMAP
12
12
00
1A
76
66
CC
CC
FD
6E
ENDCHAR
STARTCHAR uni04D4
ENCODING 1236
SWIDTH 944 0
DWIDTH 14 0
BBX 16 10 -1 0
BITMAP
07FF
0363
0260
04C4
0CFC
08C8
1FC0
2180
6186
F3FC
ENDCHAR
STARTCHAR uni04D5
ENCODING 1237
SWIDTH 722 0
DWIDTH 11 0
BBX 11 7 0 0
BITMAP
1EC0
7360
66E0
CF80
CC00
FCC0
6F80
ENDCHAR
STARTCHAR uni04E6
ENCODING 1254
SWIDTH 722 0
DWIDTH 10 0
BBX 9 13 1 0
BITMAP
0900
0900
0000
1F00
3380
6180
6180
C180
C180
C300
C300
E600
7C00
ENDCHAR
STARTCHAR uni04E7
ENCODING 1255
SWIDTH 500 0
DWIDTH 7 0
BBX 7 10 0 0
BITMAP
12
12
00
1C
76
66
C6
CC
DC
70
ENDCHAR
STARTCHAR uni04E8
ENCODING 1256
SWIDTH 685 0
DWIDTH 10 0
BBX 9 10 1 0
BITMAP
1F00
3380
6180
6180
FF80
C180
C300
C300
E600
7C00
ENDCHAR
STARTCHAR uni04E9
ENCODING 1257
SWIDTH 480 0
DWIDTH 7 0
BBX 7 7 0 0
BITMAP
1C
76
66
FE
CC
DC
70
ENDCHAR
ENDFONT
